<mxfile host="app.diagrams.net" modified="2023-05-09T08:28:03.086Z" agent="Mozilla/5.0 (Windows NT 10.0; Win64; x64) AppleWebKit/537.36 (KHTML, like Gecko) Chrome/112.0.0.0 Safari/537.36" etag="Ce0rvgW6bXdFc1YvZ40G" version="21.2.9" type="device">
  <diagram name="Page-1" id="IkxmLl5vnaoBmYSZRea0">
    <mxGraphModel dx="989" dy="474" grid="1" gridSize="10" guides="1" tooltips="1" connect="1" arrows="1" fold="1" page="1" pageScale="1" pageWidth="850" pageHeight="1100" math="0" shadow="0">
      <root>
        <mxCell id="0" />
        <mxCell id="1" parent="0" />
        <mxCell id="OTx_65D5U1qZQnOR12Ns-2" value="Client (tourism app)" style="rounded=0;whiteSpace=wrap;html=1;" vertex="1" parent="1">
          <mxGeometry x="130" y="150" width="120" height="70" as="geometry" />
        </mxCell>
        <mxCell id="OTx_65D5U1qZQnOR12Ns-3" value="Server" style="rounded=0;whiteSpace=wrap;html=1;" vertex="1" parent="1">
          <mxGeometry x="305" y="150" width="120" height="70" as="geometry" />
        </mxCell>
        <mxCell id="OTx_65D5U1qZQnOR12Ns-4" value="Database" style="rounded=0;whiteSpace=wrap;html=1;" vertex="1" parent="1">
          <mxGeometry x="480" y="150" width="120" height="70" as="geometry" />
        </mxCell>
        <mxCell id="OTx_65D5U1qZQnOR12Ns-5" value="" style="endArrow=none;dashed=1;html=1;rounded=0;entryX=0.5;entryY=1;entryDx=0;entryDy=0;" edge="1" parent="1" source="OTx_65D5U1qZQnOR12Ns-8" target="OTx_65D5U1qZQnOR12Ns-2">
          <mxGeometry width="50" height="50" relative="1" as="geometry">
            <mxPoint x="190" y="360" as="sourcePoint" />
            <mxPoint x="450" y="230" as="targetPoint" />
          </mxGeometry>
        </mxCell>
        <mxCell id="OTx_65D5U1qZQnOR12Ns-6" value="" style="endArrow=none;dashed=1;html=1;rounded=0;entryX=0.5;entryY=1;entryDx=0;entryDy=0;" edge="1" parent="1" source="OTx_65D5U1qZQnOR12Ns-10" target="OTx_65D5U1qZQnOR12Ns-3">
          <mxGeometry width="50" height="50" relative="1" as="geometry">
            <mxPoint x="365" y="290" as="sourcePoint" />
            <mxPoint x="450" y="230" as="targetPoint" />
          </mxGeometry>
        </mxCell>
        <mxCell id="OTx_65D5U1qZQnOR12Ns-7" value="" style="endArrow=none;dashed=1;html=1;rounded=0;entryX=0.5;entryY=1;entryDx=0;entryDy=0;" edge="1" parent="1" target="OTx_65D5U1qZQnOR12Ns-4">
          <mxGeometry width="50" height="50" relative="1" as="geometry">
            <mxPoint x="540" y="280" as="sourcePoint" />
            <mxPoint x="450" y="230" as="targetPoint" />
          </mxGeometry>
        </mxCell>
        <mxCell id="OTx_65D5U1qZQnOR12Ns-9" value="" style="endArrow=none;dashed=1;html=1;rounded=0;entryX=0.5;entryY=1;entryDx=0;entryDy=0;" edge="1" parent="1" target="OTx_65D5U1qZQnOR12Ns-8">
          <mxGeometry width="50" height="50" relative="1" as="geometry">
            <mxPoint x="190" y="360" as="sourcePoint" />
            <mxPoint x="190" y="220" as="targetPoint" />
          </mxGeometry>
        </mxCell>
        <mxCell id="OTx_65D5U1qZQnOR12Ns-8" value="" style="rounded=0;whiteSpace=wrap;html=1;rotation=90;" vertex="1" parent="1">
          <mxGeometry x="130" y="280" width="120" height="10" as="geometry" />
        </mxCell>
        <mxCell id="OTx_65D5U1qZQnOR12Ns-11" value="" style="endArrow=none;dashed=1;html=1;rounded=0;" edge="1" parent="1" source="OTx_65D5U1qZQnOR12Ns-10">
          <mxGeometry width="50" height="50" relative="1" as="geometry">
            <mxPoint x="365" y="360" as="sourcePoint" />
            <mxPoint x="365" y="290" as="targetPoint" />
          </mxGeometry>
        </mxCell>
        <mxCell id="OTx_65D5U1qZQnOR12Ns-12" value="" style="endArrow=none;dashed=1;html=1;rounded=0;" edge="1" parent="1" source="OTx_65D5U1qZQnOR12Ns-29" target="OTx_65D5U1qZQnOR12Ns-10">
          <mxGeometry width="50" height="50" relative="1" as="geometry">
            <mxPoint x="365" y="360" as="sourcePoint" />
            <mxPoint x="365" y="290" as="targetPoint" />
          </mxGeometry>
        </mxCell>
        <mxCell id="OTx_65D5U1qZQnOR12Ns-14" value="" style="endArrow=none;dashed=1;html=1;rounded=0;" edge="1" parent="1" source="OTx_65D5U1qZQnOR12Ns-13">
          <mxGeometry width="50" height="50" relative="1" as="geometry">
            <mxPoint x="540" y="360" as="sourcePoint" />
            <mxPoint x="540" y="280" as="targetPoint" />
          </mxGeometry>
        </mxCell>
        <mxCell id="OTx_65D5U1qZQnOR12Ns-16" value="" style="endArrow=none;dashed=1;html=1;rounded=0;entryX=0.5;entryY=1;entryDx=0;entryDy=0;" edge="1" parent="1" target="OTx_65D5U1qZQnOR12Ns-10">
          <mxGeometry width="50" height="50" relative="1" as="geometry">
            <mxPoint x="365" y="290" as="sourcePoint" />
            <mxPoint x="365" y="220" as="targetPoint" />
          </mxGeometry>
        </mxCell>
        <mxCell id="OTx_65D5U1qZQnOR12Ns-10" value="" style="rounded=0;whiteSpace=wrap;html=1;rotation=90;" vertex="1" parent="1">
          <mxGeometry x="320" y="280" width="90" height="10" as="geometry" />
        </mxCell>
        <mxCell id="OTx_65D5U1qZQnOR12Ns-17" value="" style="endArrow=none;dashed=1;html=1;rounded=0;" edge="1" parent="1" source="OTx_65D5U1qZQnOR12Ns-28" target="OTx_65D5U1qZQnOR12Ns-13">
          <mxGeometry width="50" height="50" relative="1" as="geometry">
            <mxPoint x="540" y="360" as="sourcePoint" />
            <mxPoint x="540" y="280" as="targetPoint" />
          </mxGeometry>
        </mxCell>
        <mxCell id="OTx_65D5U1qZQnOR12Ns-13" value="" style="rounded=0;whiteSpace=wrap;html=1;rotation=90;" vertex="1" parent="1">
          <mxGeometry x="512.5" y="280" width="55" height="10" as="geometry" />
        </mxCell>
        <mxCell id="OTx_65D5U1qZQnOR12Ns-18" value="" style="endArrow=classic;html=1;rounded=0;entryX=0.011;entryY=1.9;entryDx=0;entryDy=0;entryPerimeter=0;" edge="1" parent="1" target="OTx_65D5U1qZQnOR12Ns-10">
          <mxGeometry width="50" height="50" relative="1" as="geometry">
            <mxPoint x="200" y="240" as="sourcePoint" />
            <mxPoint x="290" y="240" as="targetPoint" />
            <Array as="points">
              <mxPoint x="260" y="240" />
            </Array>
          </mxGeometry>
        </mxCell>
        <mxCell id="OTx_65D5U1qZQnOR12Ns-19" value="getTopTen()" style="text;html=1;strokeColor=none;fillColor=none;align=center;verticalAlign=middle;whiteSpace=wrap;rounded=0;" vertex="1" parent="1">
          <mxGeometry x="240" y="220" width="70" height="20" as="geometry" />
        </mxCell>
        <mxCell id="OTx_65D5U1qZQnOR12Ns-22" value="" style="endArrow=classic;html=1;rounded=0;exitX=0.25;exitY=0;exitDx=0;exitDy=0;" edge="1" parent="1" source="OTx_65D5U1qZQnOR12Ns-10">
          <mxGeometry width="50" height="50" relative="1" as="geometry">
            <mxPoint x="380" y="260" as="sourcePoint" />
            <mxPoint x="530" y="263" as="targetPoint" />
          </mxGeometry>
        </mxCell>
        <mxCell id="OTx_65D5U1qZQnOR12Ns-23" value="getTopTen()" style="text;html=1;strokeColor=none;fillColor=none;align=center;verticalAlign=middle;whiteSpace=wrap;rounded=0;" vertex="1" parent="1">
          <mxGeometry x="420" y="240" width="70" height="20" as="geometry" />
        </mxCell>
        <mxCell id="OTx_65D5U1qZQnOR12Ns-24" value="" style="endArrow=block;dashed=1;endFill=0;endSize=12;html=1;rounded=0;entryX=0.789;entryY=-0.7;entryDx=0;entryDy=0;entryPerimeter=0;" edge="1" parent="1" source="OTx_65D5U1qZQnOR12Ns-28" target="OTx_65D5U1qZQnOR12Ns-10">
          <mxGeometry width="160" relative="1" as="geometry">
            <mxPoint x="530" y="310" as="sourcePoint" />
            <mxPoint x="470" y="310" as="targetPoint" />
          </mxGeometry>
        </mxCell>
        <mxCell id="OTx_65D5U1qZQnOR12Ns-25" value="" style="endArrow=block;dashed=1;endFill=0;endSize=12;html=1;rounded=0;entryX=0.789;entryY=-0.7;entryDx=0;entryDy=0;entryPerimeter=0;" edge="1" parent="1">
          <mxGeometry width="160" relative="1" as="geometry">
            <mxPoint x="351.5" y="320" as="sourcePoint" />
            <mxPoint x="198.5" y="321" as="targetPoint" />
          </mxGeometry>
        </mxCell>
        <mxCell id="OTx_65D5U1qZQnOR12Ns-26" value="topTen" style="text;html=1;strokeColor=none;fillColor=none;align=center;verticalAlign=middle;whiteSpace=wrap;rounded=0;" vertex="1" parent="1">
          <mxGeometry x="420" y="290" width="70" height="20" as="geometry" />
        </mxCell>
        <mxCell id="OTx_65D5U1qZQnOR12Ns-27" value="topTen" style="text;html=1;strokeColor=none;fillColor=none;align=center;verticalAlign=middle;whiteSpace=wrap;rounded=0;" vertex="1" parent="1">
          <mxGeometry x="250" y="300" width="70" height="20" as="geometry" />
        </mxCell>
        <mxCell id="OTx_65D5U1qZQnOR12Ns-30" value="" style="endArrow=none;dashed=1;html=1;rounded=0;" edge="1" parent="1" target="OTx_65D5U1qZQnOR12Ns-29">
          <mxGeometry width="50" height="50" relative="1" as="geometry">
            <mxPoint x="365" y="360" as="sourcePoint" />
            <mxPoint x="365" y="330" as="targetPoint" />
          </mxGeometry>
        </mxCell>
        <mxCell id="OTx_65D5U1qZQnOR12Ns-29" value="&lt;b&gt;X&lt;/b&gt;" style="text;html=1;strokeColor=none;fillColor=none;align=center;verticalAlign=middle;whiteSpace=wrap;rounded=0;" vertex="1" parent="1">
          <mxGeometry x="360" y="320" width="10" height="20" as="geometry" />
        </mxCell>
        <mxCell id="OTx_65D5U1qZQnOR12Ns-32" value="" style="endArrow=none;dashed=1;html=1;rounded=0;" edge="1" parent="1" target="OTx_65D5U1qZQnOR12Ns-28">
          <mxGeometry width="50" height="50" relative="1" as="geometry">
            <mxPoint x="540" y="360" as="sourcePoint" />
            <mxPoint x="540" y="313" as="targetPoint" />
          </mxGeometry>
        </mxCell>
        <mxCell id="OTx_65D5U1qZQnOR12Ns-28" value="&lt;b&gt;X&lt;/b&gt;" style="text;html=1;strokeColor=none;fillColor=none;align=center;verticalAlign=middle;whiteSpace=wrap;rounded=0;" vertex="1" parent="1">
          <mxGeometry x="535" y="305" width="10" height="10" as="geometry" />
        </mxCell>
      </root>
    </mxGraphModel>
  </diagram>
</mxfile>
